<svg xmlns="http://www.w3.org/2000/svg" xmlns:xlink="http://www.w3.org/1999/xlink" width="257.14mm" height="44.04mm" viewBox="0 0 728.9 124.85"><defs><style>.cls-1{fill:#36a9e1;}.cls-2{fill:#29235c;}.cls-3{fill:#1d71b8;}.cls-4{fill:url(#Dégradé_sans_nom_6);}.cls-5{fill:url(#Dégradé_sans_nom_6-2);}</style><linearGradient id="Dégradé_sans_nom_6" x1="54.93" y1="99.35" x2="54.93" y2="-13.54" gradientTransform="translate(173.51 82.49)" gradientUnits="userSpaceOnUse"><stop offset="0" stop-color="#36a9e1"/><stop offset="0.75" stop-color="#29235c"/></linearGradient><linearGradient id="Dégradé_sans_nom_6-2" x1="-59.7" y1="99.35" x2="-59.7" y2="-13.54" xlink:href="#Dégradé_sans_nom_6"/></defs><g id="Calque_2" data-name="Calque 2"><path class="cls-1" d="M327.24,183.59c0,2.12,1.06,2.37,2.29,2.37v.68a26.85,26.85,0,0,0-3.14-.25c-1.31,0-2.76.12-4.2.25V186c1.06,0,2.17-.17,2.29-2.37V162.48c0-2-1.27-2.29-2.29-2.29v-.68h10.43c6.19,0,9.46,3.73,9.46,8.05a8.16,8.16,0,0,1-8.4,8.61c-3,0-5.68-1.31-5.68-1.95,0-.17.09-.34.26-.34a15.88,15.88,0,0,0,3.68.59c4,0,7.38-2.54,7.38-6.4,0-5.38-4.37-6.86-8.82-6.86h-3.26Z" transform="translate(-56.5 -62.21)"/><path class="cls-1" d="M366.66,186c1.65-.21,2.59-1.9,3.48-4.32L376,166.42a22.35,22.35,0,0,0,1.65-5.43c0-.76-.67-1.06-1.82-1.06v-.67a19.41,19.41,0,0,0,3,.25,15.43,15.43,0,0,0,2.5-.25c.38,1.23,1.14,3.34,1.78,4.91l5.05,12.72,2.62,6.66a3.54,3.54,0,0,0,2.55,2.41v.68a28.52,28.52,0,0,0-3.31-.25,36.71,36.71,0,0,0-3.77.25V186c1.06-.21,1.86-.46,1.86-1.69s-2.54-6.87-3-8.23H374.29c-.8,1.87-2.67,7-2.67,8.27s1.06,1.57,1.87,1.65v.68a19.24,19.24,0,0,0-2.72-.25c-1.35,0-2.75.12-4.11.25Zm17.76-11.61-4.83-12.55-4.66,12.55Z" transform="translate(-56.5 -62.21)"/><path class="cls-1" d="M423,186c1.06,0,2.16-.17,2.29-2.37V161.21h-1.61c-4.11,0-4.71.8-5.64,4.32l-.38,1.44h-.94c.17-1.95.26-4.45.26-6.53v-.93h19.37v.93c0,2.08.09,4.58.26,6.53h-.94l-.38-1.44c-.93-3.52-1.52-4.32-5.59-4.32H428v22.38c0,2.12,1.06,2.37,2.29,2.37v.68a26.85,26.85,0,0,0-3.13-.25c-1.32,0-2.76.12-4.2.25Z" transform="translate(-56.5 -62.21)"/><path class="cls-1" d="M467.59,162.48c0-2-1.27-2.29-2.29-2.29v-.68h11.11c5.17,0,8.61,1.87,8.61,6.44,0,4.92-4.92,7.42-9.41,7.42,3.05,3.48,6.14,6.87,8.94,10.64a4.48,4.48,0,0,0,3.69,2v.68a15.34,15.34,0,0,0-2.5-.25,16.48,16.48,0,0,0-2.59.25,130.15,130.15,0,0,0-9.32-11.4c-1.91-2-2.42-2.59-2.42-2.84a.36.36,0,0,1,.38-.38c.47,0,1.19.08,2.08.08,3.73,0,8.39-1.31,8.39-5.76,0-4-3.73-5.13-7.71-5.13h-4.2v22.38c0,2.12,1.06,2.37,2.29,2.37v.68a26.85,26.85,0,0,0-3.14-.25c-1.31,0-2.75.12-4.2.25V186c1.06,0,2.17-.17,2.29-2.37Z" transform="translate(-56.5 -62.21)"/><path class="cls-1" d="M521.35,184.31c0,1.19.93,1.65,2.07,1.65v.68c-1.18-.13-2.46-.25-3.43-.25a34.51,34.51,0,0,0-3.48.25V186c1.15,0,2.08-.46,2.08-1.65V161.63c0-1.61-.76-1.7-2.08-1.7v-.67c1.23.12,2.33.25,3.48.25s2.2-.13,3.43-.25v.67c-1.31,0-2.07.09-2.07,1.7Z" transform="translate(-56.5 -62.21)"/><path class="cls-1" d="M553.22,186c1.1-.17,2.29-.25,2.29-2.71,0-2.08.85-12.46.85-20.86,0-2.2-1.23-2.46-2.33-2.46v-.67a25.28,25.28,0,0,0,3,.25,15,15,0,0,0,2.29-.25c1.06,3,2.33,5.89,3.73,8.9L569.42,183,578,159.26a18.92,18.92,0,0,0,2.59.25,17.79,17.79,0,0,0,2.5-.25v.67a1.9,1.9,0,0,0-2,1.87c0,6.4,1.36,21.53,1.36,22.09a2.08,2.08,0,0,0,2.33,2.07v.68a29.73,29.73,0,0,0-3.39-.25,36.71,36.71,0,0,0-3.77.25V186c.8,0,2.07-.17,2.07-1.82,0-5.43-.72-13.65-1.14-20.65h-.09l-8.35,23.15h-1.91l-9.79-23.15h-.08c-.3,6.79-.64,16.67-.64,20.4,0,1.52.51,2.07,2.08,2.07v.68a29.9,29.9,0,0,0-3.39-.25,24.91,24.91,0,0,0-3.1.25Z" transform="translate(-56.5 -62.21)"/><path class="cls-1" d="M626.64,158.83c9.41,0,14.21,7.93,14.21,14.8a13.24,13.24,0,0,1-12.94,13.44c-8.47,0-14-7-14-14.59S619.9,158.83,626.64,158.83Zm1.11,26.33c5.38,0,10.34-4.54,10.34-11.66,0-6.36-4.32-12.76-10.9-12.76s-10.55,4.71-10.55,11.83C616.64,178.84,621.22,185.16,627.75,185.16Z" transform="translate(-56.5 -62.21)"/><path class="cls-1" d="M675.39,184.31c0,1.19.93,1.65,2.08,1.65v.68c-1.19-.13-2.46-.25-3.44-.25a34.53,34.53,0,0,0-3.47.25V186c1.14,0,2.08-.46,2.08-1.65V161.63c0-1.61-.77-1.7-2.08-1.7v-.67c1.23.12,2.33.25,3.47.25s2.21-.13,3.44-.25v.67c-1.31,0-2.08.09-2.08,1.7Z" transform="translate(-56.5 -62.21)"/><path class="cls-1" d="M710.24,162.14c0-1.87-.77-2.21-2.08-2.21v-.67a19.48,19.48,0,0,0,2.71.25,14.73,14.73,0,0,0,2.59-.25c5.21,7.46,10.43,15,15.43,22.72H729V162.14c0-1.87-1.35-2.21-2.41-2.21v-.67a30.51,30.51,0,0,0,3.35.25,28.35,28.35,0,0,0,3.26-.25v.67c-1.31,0-2.08.34-2.08,2.21v24.5h-2c-5.26-8-11.07-16.36-16.62-24.42h-.08v21.54c0,1.44,1.06,2.2,2.67,2.2v.68a26.21,26.21,0,0,0-3.61-.25,21.43,21.43,0,0,0-3.26.25V186c1.14,0,2.08-.46,2.08-2.16Z" transform="translate(-56.5 -62.21)"/><path class="cls-1" d="M766.28,162c0-1.53-1.28-1.78-2.29-1.78v-.68H783.7a52.4,52.4,0,0,0,.42,5.68h-.68c-.88-2.42-.8-4-3.94-4H769v10.21h7.08c1.78,0,2-.8,2.37-2.8h.85c-.13,1.36-.25,2.68-.25,4a27.85,27.85,0,0,0,.25,3.27h-1.06c0-1.91-.38-2.8-2.29-2.8h-7v11.57H780c3.31,0,4-1.86,4.49-4.79h.93a31.39,31.39,0,0,0-.55,6.49H764v-.68c1.4,0,2.29-.17,2.29-1.87Z" transform="translate(-56.5 -62.21)"/><path class="cls-2" d="M326.77,69.34c0-2.77-1.19-3.56-5-4.16V63.8h29.08c13.06,0,19.49,7.52,19.49,18.5,0,12.07-9.4,19.78-22.76,19.78-2.37,0-7.71-.89-9.49-2.57-.3-.3-.6-.5-.6-1s.5-.79,1.39-.79h5.93c9.3,0,16.42-5.15,16.42-14.44,0-12.67-8.8-14.55-22.15-14.55h-2.57v52.83c0,2.77,1.18,3.56,5,4.15v1.39c-2.08,0-6.13-.6-9.89-.6s-7.82.6-9.89.6v-1.39c3.85-.59,5-1.38,5-4.15Z" transform="translate(-56.5 -62.21)"/><path class="cls-2" d="M381.76,69.34c0-2.77-1.18-3.56-5-4.16V63.8H424.4c0,4.84.2,9.79.59,14.64h-2c-1.19-7.92-4.56-9.1-8.91-9.1H391.46V90.51h14.05c3.56,0,5.54-.3,6.23-5.74h2a79.24,79.24,0,0,0-.6,8.41,79.14,79.14,0,0,0,.6,8.6h-2c-.69-5.44-2.67-5.73-6.23-5.73H391.46V121h21c8.31,0,11.87-1.68,13.65-10.68H428c-.49,5.44-.89,10.78-1,16.22H376.72v-1.38c3.86-.59,5-1.39,5-4.16Z" transform="translate(-56.5 -62.21)"/><path class="cls-2" d="M442.2,68.74c0-2.77-1.19-3.56-5.05-4.15V63.2c2.77,0,5.64.6,8.41.6s4.85-.6,7.32-.6l33.64,46.2h.2V73.59c0-6.63-1.59-8.11-6.93-9V63.2c2.77,0,5.54.6,8.31.6,3.26,0,6.53-.6,9.79-.6v1.39c-3.86.59-5,1.38-5,4.15v58.37H487l-38.48-53h-.2v42.63c0,6.63,1.59,8.11,6.93,9v1.39c-2.77,0-5.54-.6-8.31-.6-3.27,0-6.53.6-9.8.6v-1.39c3.86-.59,5.05-1.38,5.05-4.15Z" transform="translate(-56.5 -62.21)"/><path class="cls-2" d="M507.08,125.72c3.86-.59,5.05-1.38,5.05-4.15V68.74c0-2.77-1.19-3.56-5.05-4.15V63.2c2.08,0,6.14.6,9.9.6s7.81-.6,9.89-.6v1.39c-3.86.59-5,1.38-5,4.15v52.83c0,2.77,1.19,3.56,5,4.15v1.39c-2.08,0-6.13-.6-9.89-.6s-7.82.6-9.9.6Z" transform="translate(-56.5 -62.21)"/><path class="cls-2" d="M591.06,125.72c3.36-.1,4.25-1.08,6.23-6.53L614.9,70.92a11.17,11.17,0,0,0,.59-3.26c0-2.28-1-2.58-3.16-3.07V63.2a63.32,63.32,0,0,0,7.51.6,30,30,0,0,0,5.15-.6c.4,2.77,1.58,6.24,3.36,10.89l16.72,43.62c2.57,6.63,3.07,7.32,6.63,8v1.39c-2.57,0-5.05-.6-7.62-.6-3.86,0-7.72.6-11.57.6v-1.39c3.46-.3,4.55-1.08,4.55-3s-.6-3.47-2.67-8.91L630.33,103H609.06l-4.84,13.65a22.85,22.85,0,0,0-1.59,6.63c0,1.48,1,2.37,5.15,2.47v1.39c-2.57,0-5.25-.6-7.82-.6-3,0-5.93.6-8.9.6ZM628.55,98l-8.8-24.54h-.2L610.75,98Z" transform="translate(-56.5 -62.21)"/><path class="cls-2" d="M655.85,63.2c3.06,0,6.13.6,8.8.6,5,0,8.21-.6,11.28-.6v1.39c-2.18.1-5.74.69-5.74,4.25v38.68c0,10.49,6.33,15.63,14.34,15.63S699,118,699,107.52V68.84c0-3.56-3.56-4.15-5.74-4.25V63.2c3.06,0,6.23.6,11.28.6,2.67,0,5.73-.6,8.8-.6v1.39c-4.06.39-4.65.69-4.65,5v36c0,15.33-8.9,22.46-24.14,22.46s-24-7.13-24-22.46v-36c0-4.36-.6-4.66-4.65-5Z" transform="translate(-56.5 -62.21)"/><path class="cls-2" d="M746.35,63.8c25.13,0,38.48,12.26,38.48,31,0,18.89-16.12,31.75-35.71,31.75H722.91v-1.38c3.85-.59,5-1.39,5-4.16V69.34c0-2.77-1.19-3.56-5-4.16V63.8ZM737.65,121H751.5c10.09,0,23.64-9.1,23.64-24.33,0-11.28-5.44-27.3-32.55-27.3h-4.94Z" transform="translate(-56.5 -62.21)"/><path class="cls-2" d="M547.46,78.86" transform="translate(-56.5 -62.21)"/><path class="cls-2" d="M567,122c-10.21,0-18.42-5.67-21.61-14.94A39.51,39.51,0,0,1,544,95.54c0-8.6,1.87-13.52,2.87-15.55,3.85-7.3,11.27-11.64,20.2-11.64,6.92,0,15.33,2.77,17.31,11.77h1.38c-.49-5-.89-9.89-1-14.84a35.65,35.65,0,0,0-15-3.07c-.89,0-1.81,0-2.74.12a9,9,0,0,0-1.51-.12c-12.87,0-30.57,9.5-30.57,32.65,0,.1,0,.19,0,.3s0,.19,0,.29c0,23.15,17.7,32.65,30.57,32.65A9,9,0,0,0,567,128c.93.08,1.85.12,2.74.12a35.65,35.65,0,0,0,15-3.07c.1-5,.5-9.89,1-14.84h-1.38C582.36,119.19,574,122,567,122Z" transform="translate(-56.5 -62.21)"/><path class="cls-3" d="M321.73,142.36l72.36-.25,159.19-.2,159.19.2,72.36.25-72.36.25-159.19.2-159.19-.21Z" transform="translate(-56.5 -62.21)"/><path class="cls-4" d="M200.21,164.24c0,12.22,6.11,13.69,13.2,13.69v3.91H171.13v-3.91c6.11,0,12.46-1,13.19-13.69V86.05c0-11.73-7.33-13.2-13.19-13.2V68.94h60.12c35.69,0,54.51,21.51,54.51,46.44,0,30.8-21.75,49.62-48.39,49.62-17.12,0-32.76-7.58-32.76-11.24,0-1,.49-2,1.47-2,2.2,0,9.53,3.42,21.26,3.42,23,0,42.53-14.66,42.53-36.9,0-31-25.17-39.6-50.84-39.6H200.21Z" transform="translate(-56.5 -62.21)"/><path class="cls-5" d="M142,78.72H123.22c-25.66,0-50.84,8.56-50.84,39.6,0,22.24,19.56,36.9,42.53,36.9,11.74,0,19.07-3.42,21.27-3.42,1,0,1.46,1,1.46,2,0,3.66-15.64,11.24-32.75,11.24-26.64,0-48.39-18.82-48.39-49.62,0-24.93,18.82-46.44,54.5-46.44h60.13v3.91c-5.87,0-13.2,1.47-13.2,13.2v78.19c.73,12.71,7.09,13.69,13.2,13.69v3.91H128.84v-3.91c7.09,0,13.2-1.47,13.2-13.69Z" transform="translate(-56.5 -62.21)"/></g></svg>